<svg width="69" height="69" viewBox="0 0 69 69" fill="none" xmlns="http://www.w3.org/2000/svg">
<path fill-rule="evenodd" clip-rule="evenodd" d="M39.1143 51.9473C51.3227 51.9473 61.2196 42.0505 61.2196 29.8421C61.2196 17.6337 51.3227 7.73682 39.1143 7.73682C26.9059 7.73682 17.009 17.6337 17.009 29.8421C17.009 42.0505 26.9059 51.9473 39.1143 51.9473ZM30.6475 36.2631L39.4564 41.048L48.2653 36.2631V28.9138L50.9236 27.4752V36.0964H52.9564V26.3493L39.4564 19L25.9564 26.3493L30.6475 28.9138V36.2631ZM39.4564 31.3636L48.7268 26.3493L39.4564 21.335L30.186 26.3493L39.4564 31.3636ZM39.4564 38.734L46.2325 35.0749V29.9979L39.4564 33.6963L32.6803 29.9979V35.0749L39.4564 38.734Z" fill="black"/>
<path fill-rule="evenodd" clip-rule="evenodd" d="M39.1143 -5.72205e-06C22.633 -5.72205e-06 9.27222 13.3608 9.27222 29.8421C9.27222 46.3234 22.633 59.6842 39.1143 59.6842C55.5957 59.6842 68.9564 46.3234 68.9564 29.8421H64.4801C64.4801 43.8512 53.1235 55.2079 39.1143 55.2079C25.1052 55.2079 13.7485 43.8512 13.7485 29.8421C13.7485 15.833 25.1052 4.47631 39.1143 4.47631V-5.72205e-06Z" fill="black"/>
<path d="M67.0181 56.9183C51.9109 72.0254 27.4174 72.0254 12.3103 56.9183C-2.7968 41.8112 -2.7968 17.3177 12.3103 2.21057L15.4365 5.33673C2.05588 18.7173 2.05588 40.4116 15.4365 53.7921C28.8171 67.1727 50.5113 67.1727 63.8919 53.7922L67.0181 56.9183Z" fill="black"/>
</svg>
