<svg width="69" height="69" viewBox="0 0 69 69" fill="none" xmlns="http://www.w3.org/2000/svg">
<path fill-rule="evenodd" clip-rule="evenodd" d="M61.196 29.8421C61.196 42.0505 51.2991 51.9473 39.0907 51.9473C26.8823 51.9473 16.9855 42.0505 16.9855 29.8421C16.9855 17.6337 26.8823 7.73682 39.0907 7.73682C51.2991 7.73682 61.196 17.6337 61.196 29.8421ZM27.9328 24.3855V26.0812H49.9328V24.3855L38.9328 19L27.9328 24.3855ZM38.9328 21.0166L32.1585 24.2937H45.7072L38.9328 21.0166ZM38.0391 37.4021V28.4645H39.8266V37.4021H38.0391ZM31.4849 28.4645V37.4021H33.2724V28.4645H31.4849ZM44.5933 37.4021V28.4645H46.3808V37.4021H44.5933ZM27.9328 39.7854V41.5729H49.9328V39.7854H27.9328Z" fill="black"/>
<path fill-rule="evenodd" clip-rule="evenodd" d="M39.0908 -5.72205e-06C22.6094 -5.72205e-06 9.24866 13.3608 9.24866 29.8421C9.24866 46.3234 22.6094 59.6842 39.0908 59.6842C55.5721 59.6842 68.9329 46.3234 68.9329 29.8421H64.4566C64.4566 43.8512 53.0999 55.2079 39.0908 55.2079C25.0816 55.2079 13.725 43.8512 13.725 29.8421C13.725 15.833 25.0816 4.47631 39.0908 4.47631V-5.72205e-06Z" fill="black"/>
<path d="M66.9945 56.9183C51.8874 72.0254 27.3939 72.0254 12.2868 56.9183C-2.82036 41.8112 -2.82036 17.3177 12.2868 2.21057L15.4129 5.33673C2.03232 18.7173 2.03232 40.4116 15.4129 53.7921C28.7935 67.1727 50.4877 67.1727 63.8683 53.7922L66.9945 56.9183Z" fill="black"/>
</svg>
