<svg width="68" height="69" viewBox="0 0 68 69" fill="none" xmlns="http://www.w3.org/2000/svg">
<path fill-rule="evenodd" clip-rule="evenodd" d="M38.1379 51.9476C50.3463 51.9476 60.2431 42.0507 60.2431 29.8423C60.2431 17.6339 50.3463 7.73706 38.1379 7.73706C25.9295 7.73706 16.0326 17.6339 16.0326 29.8423C16.0326 42.0507 25.9295 51.9476 38.1379 51.9476ZM28.8738 40.0056C28.3446 40.0056 27.8966 39.8222 27.53 39.4556C27.1633 39.0889 26.98 38.6411 26.98 38.112V27.5551H28.5514V38.112C28.5514 38.1925 28.585 38.2664 28.6522 38.3336C28.7193 38.4006 28.7931 38.4341 28.8738 38.4341H45.5752V40.0056H28.8738ZM31.1966 35.7892C31.5633 36.1557 32.0113 36.3389 32.5405 36.3389H47.0861C47.6154 36.3389 48.0633 36.1557 48.43 35.7892C48.7966 35.4225 48.98 34.9746 48.98 34.4453V23.7677H43.5806V21.8941C43.5806 21.3649 43.3972 20.9169 43.0306 20.5502C42.6639 20.1836 42.216 20.0002 41.687 20.0002H37.9396C37.4104 20.0002 36.9625 20.1836 36.5958 20.5502C36.2291 20.9169 36.0458 21.3649 36.0458 21.8941V23.7677H30.6466V34.4453C30.6466 34.9746 30.83 35.4225 31.1966 35.7892ZM32.5405 34.7677H47.0861C47.1668 34.7677 47.2407 34.7341 47.3077 34.6669C47.3749 34.5997 47.4086 34.5258 47.4086 34.4453V25.3392H32.2181V34.4453C32.2181 34.5258 32.2516 34.5997 32.3186 34.6669C32.3859 34.7341 32.4598 34.7677 32.5405 34.7677ZM37.6172 23.7677H42.0094V21.8941C42.0094 21.8134 41.9758 21.7396 41.9086 21.6725C41.8413 21.6053 41.7675 21.5717 41.687 21.5717H37.9396C37.8592 21.5717 37.7853 21.6053 37.7181 21.6725C37.6509 21.7396 37.6172 21.8134 37.6172 21.8941V23.7677Z" fill="black"/>
<path fill-rule="evenodd" clip-rule="evenodd" d="M38.1379 0.000238419C21.6565 0.000238419 8.29578 13.361 8.29578 29.8423C8.29578 46.3237 21.6565 59.6844 38.1379 59.6844C54.6192 59.6844 67.98 46.3237 67.98 29.8423H63.5037C63.5037 43.8515 52.147 55.2081 38.1379 55.2081C24.1287 55.2081 12.7721 43.8515 12.7721 29.8423C12.7721 15.8332 24.1287 4.47655 38.1379 4.47655V0.000238419Z" fill="black"/>
<path d="M66.0381 56.918C50.931 72.0251 26.4375 72.0251 11.3303 56.918C-3.77678 41.8109 -3.77678 17.3174 11.3303 2.21027L14.4565 5.33642C1.0759 18.717 1.0759 40.4112 14.4565 53.7918C27.8371 67.1724 49.5313 67.1724 62.9119 53.7918L66.0381 56.918Z" fill="black"/>
</svg>
