<svg width="68" height="69" viewBox="0 0 68 69" fill="none" xmlns="http://www.w3.org/2000/svg">
<path fill-rule="evenodd" clip-rule="evenodd" d="M38.1243 52.196C50.3327 52.196 60.2296 42.2991 60.2296 30.0907C60.2296 17.8823 50.3327 7.98547 38.1243 7.98547C25.9159 7.98547 16.019 17.8823 16.019 30.0907C16.019 42.2991 25.9159 52.196 38.1243 52.196ZM36.2657 41.8799C36.8059 42.3837 37.4393 42.6357 38.1656 42.6357C38.5528 42.6357 38.9239 42.5624 39.2789 42.416C39.6338 42.2693 39.9529 42.0543 40.2362 41.771L50.5127 31.5144C50.9804 31.0467 51.3386 30.532 51.5875 29.9703C51.8361 29.4086 51.9604 28.8164 51.9604 28.1937C51.9604 27.571 51.8361 26.9611 51.5875 26.3641C51.3386 25.767 50.9804 25.2346 50.5127 24.7667L45.4054 19.6594C44.9375 19.1915 44.4207 18.8395 43.8549 18.6033C43.2892 18.3669 42.6949 18.2487 42.0722 18.2487C41.4495 18.2487 40.8573 18.3669 40.2956 18.6033C39.7339 18.8395 39.2126 19.1915 38.7316 19.6594L37.9954 20.3956L37.2589 19.6594C36.7912 19.1915 36.2764 18.8395 35.7145 18.6033C35.1528 18.3669 34.5607 18.2487 33.9382 18.2487C33.3154 18.2487 32.7212 18.3669 32.1554 18.6033C31.5897 18.8395 31.0662 19.1915 30.585 19.6594L26.3772 23.8673C25.944 24.3005 25.6071 24.7926 25.3666 25.3436C25.1261 25.8946 24.9927 26.4658 24.9664 27.0572C24.9401 27.5909 25.0002 28.1171 25.1469 28.636C25.2934 29.1549 25.5116 29.6235 25.8015 30.0419L27.2197 28.6238C27.0912 28.3882 27.0015 28.1366 26.9505 27.8689C26.8993 27.6013 26.887 27.3307 26.9136 27.0572C26.9399 26.726 27.0276 26.401 27.1767 26.0824C27.3257 25.7635 27.5171 25.4872 27.751 25.2533L31.9714 21.0133C32.2611 20.7234 32.5687 20.5113 32.8942 20.377C33.2195 20.243 33.5633 20.1759 33.9256 20.1759C34.3012 20.1759 34.6525 20.243 34.9795 20.377C35.3065 20.5113 35.6084 20.7234 35.885 21.0133L40.3919 25.5202C40.4808 25.5961 40.5517 25.6953 40.6046 25.818C40.6573 25.9407 40.6836 26.0737 40.6836 26.217C40.6836 26.4675 40.5987 26.6702 40.4289 26.825C40.2593 26.9798 40.0576 27.0572 39.8237 27.0572C39.6805 27.0572 39.5474 27.0309 39.4245 26.9782C39.3018 26.9253 39.2026 26.8545 39.127 26.7656L35.3637 23.0026L28.4059 29.9408C28.1308 30.2157 27.9211 30.5348 27.777 30.898C27.6329 31.2614 27.5608 31.6325 27.5608 32.0113C27.5608 32.7837 27.8096 33.4224 28.307 33.9273C28.8045 34.4323 29.4353 34.7094 30.1996 34.7586C30.2326 35.4901 30.4839 36.0972 30.9535 36.5799C31.4229 37.0626 32.0381 37.3285 32.7991 37.3778C32.8403 38.1388 33.105 38.7533 33.5935 39.2212C34.082 39.6889 34.6902 39.9475 35.4183 39.9969C35.4429 40.7481 35.7254 41.3758 36.2657 41.8799ZM38.1855 40.7087C38.3123 40.7087 38.4412 40.6791 38.5723 40.6198C38.7031 40.5604 38.8064 40.4929 38.8823 40.4171L49.1585 30.1409C49.4484 29.8509 49.6667 29.5412 49.8134 29.2116C49.9599 28.8823 50.0331 28.5364 50.0331 28.1741C50.0331 27.7985 49.9599 27.4369 49.8134 27.0894C49.6667 26.7416 49.4484 26.4294 49.1585 26.1527L44.0191 21.0133C43.7424 20.7234 43.4426 20.5113 43.1197 20.377C42.797 20.243 42.4478 20.1759 42.0722 20.1759C41.7099 20.1759 41.3619 20.243 41.0283 20.377C40.6946 20.5113 40.387 20.7234 40.1054 21.0133L39.3689 21.7499L41.7459 24.1464C42.0341 24.4216 42.2471 24.7354 42.3847 25.0879C42.5222 25.4404 42.591 25.806 42.591 26.1848C42.591 26.969 42.3291 27.623 41.8053 28.1468C41.2815 28.6706 40.6275 28.9325 39.8433 28.9325C39.4645 28.9325 39.0976 28.8698 38.7425 28.7446C38.3877 28.6195 38.0727 28.4194 37.7975 28.1442L35.3637 25.7303L29.7798 31.3143C29.6825 31.4115 29.6096 31.5203 29.561 31.6406C29.5124 31.7607 29.4881 31.8843 29.4881 32.0113C29.4881 32.2483 29.5688 32.4509 29.7303 32.619C29.8918 32.7871 30.091 32.8712 30.3281 32.8712C30.4551 32.8712 30.584 32.8415 30.7148 32.7822C30.8459 32.7229 30.9493 32.6553 31.0251 32.5795L35.2452 28.3594L36.5991 29.7133L32.3986 33.9334C32.3016 34.0306 32.2288 34.1394 32.1802 34.2598C32.1316 34.3799 32.1073 34.5035 32.1073 34.6305C32.1073 34.8594 32.19 35.0566 32.3556 35.2221C32.5211 35.3877 32.7183 35.4704 32.9472 35.4704C33.0742 35.4704 33.2031 35.4408 33.334 35.3814C33.465 35.3221 33.5683 35.2546 33.6439 35.1788L38.0124 30.8302L39.3666 32.1841L35.0178 36.5526C34.9289 36.6284 34.8581 36.7317 34.8054 36.8625C34.7528 36.9936 34.7264 37.1225 34.7264 37.2493C34.7264 37.4784 34.8092 37.6758 34.9747 37.8413C35.1402 38.0068 35.3375 38.0896 35.5664 38.0896C35.6932 38.0896 35.8167 38.0653 35.9371 38.0167C36.0572 37.9681 36.1659 37.8951 36.2631 37.7979L40.6316 33.4494L41.9858 34.8033L37.6173 39.1717C37.5201 39.269 37.4472 39.3818 37.3986 39.5103C37.35 39.6388 37.3257 39.7623 37.3257 39.881C37.3257 40.118 37.4138 40.3153 37.59 40.4726C37.7663 40.63 37.9648 40.7087 38.1855 40.7087Z" fill="black"/>
<path fill-rule="evenodd" clip-rule="evenodd" d="M38.1243 0.248652C21.643 0.248652 8.28223 13.6094 8.28223 30.0908C8.28223 46.5721 21.643 59.9329 38.1243 59.9329C54.6057 59.9329 67.9664 46.5721 67.9664 30.0908H63.4901C63.4901 44.0999 52.1335 55.4565 38.1243 55.4565C24.1152 55.4565 12.7585 44.0999 12.7585 30.0908C12.7585 16.0816 24.1152 4.72497 38.1243 4.72497V0.248652Z" fill="black"/>
<path d="M66.0281 57.167C50.9209 72.2741 26.4275 72.2741 11.3203 57.167C-3.78679 42.0598 -3.78679 17.5664 11.3203 2.45923L14.4465 5.58539C1.06589 18.966 1.06589 40.6602 14.4465 54.0408C27.8271 67.4214 49.5213 67.4214 62.9019 54.0408L66.0281 57.167Z" fill="black"/>
</svg>
