<svg width="69" height="69" viewBox="0 0 69 69" fill="none" xmlns="http://www.w3.org/2000/svg">
<path fill-rule="evenodd" clip-rule="evenodd" d="M39.1007 52.196C51.3091 52.196 61.206 42.2991 61.206 30.0907C61.206 17.8823 51.3091 7.98547 39.1007 7.98547C26.8923 7.98547 16.9955 17.8823 16.9955 30.0907C16.9955 42.2991 26.8923 52.196 39.1007 52.196ZM37.9358 31.2891V41.8774H39.9369V34.8732C41.2744 34.8732 42.5508 34.6256 43.7662 34.1305C44.9814 33.6353 46.0588 32.9178 46.9984 31.9782C47.9381 31.0383 48.6638 29.9523 49.1754 28.7203C49.687 27.4882 49.9429 26.2039 49.9429 24.8673V22.8661H47.9417C46.6053 22.8661 45.3212 23.1218 44.0894 23.6332C42.8576 24.1444 41.7719 24.8696 40.8325 25.8089C40.5997 26.0414 40.3888 26.277 40.1998 26.5156C40.0108 26.7544 39.8393 27.0072 39.6855 27.2741C39.4922 26.3059 39.1719 25.3913 38.7246 24.5301C38.2774 23.6689 37.7048 22.8894 37.0069 22.1914C36.0694 21.2522 34.986 20.527 33.7566 20.0158C32.5275 19.5044 31.2566 19.2487 29.944 19.2487H27.9429V21.2498C27.9429 22.5857 28.1904 23.8694 28.6856 25.1008C29.1808 26.3322 29.8987 27.4183 30.8392 28.359C31.78 29.2998 32.8635 30.0234 34.0898 30.5297C35.3163 31.036 36.5983 31.2891 37.9358 31.2891ZM37.9488 29.2546C37.9488 28.1873 37.7431 27.17 37.3317 26.2028C36.9204 25.2355 36.3367 24.3739 35.5807 23.6179C34.8247 22.8619 33.9631 22.2782 32.9958 21.8669C32.0286 21.4555 31.0113 21.2498 29.944 21.2498C29.944 22.3171 30.1442 23.34 30.5444 24.3183C30.9446 25.2967 31.5227 26.1639 32.2787 26.9199C33.0347 27.6759 33.9019 28.254 34.8803 28.6542C35.8586 29.0544 36.8815 29.2546 37.9488 29.2546ZM39.9369 32.872C41.0042 32.872 42.0215 32.6719 42.9887 32.2717C43.956 31.8715 44.8176 31.2933 45.5736 30.5373C46.3296 29.7813 46.9133 28.9141 47.3246 27.9358C47.736 26.9574 47.9417 25.9346 47.9417 24.8673C46.8744 24.8673 45.8515 25.073 44.8732 25.4843C43.8948 25.8957 43.0277 26.4794 42.2717 27.2354C41.5156 27.9914 40.9375 28.853 40.5373 29.8202C40.1371 30.7875 39.9369 31.8047 39.9369 32.872Z" fill="black"/>
<path fill-rule="evenodd" clip-rule="evenodd" d="M39.1008 0.248652C22.6194 0.248652 9.25867 13.6094 9.25867 30.0908C9.25867 46.5721 22.6194 59.9329 39.1008 59.9329C55.5821 59.9329 68.9429 46.5721 68.9429 30.0908H64.4666C64.4666 44.0999 53.1099 55.4565 39.1008 55.4565C25.0916 55.4565 13.735 44.0999 13.735 30.0908C13.735 16.0816 25.0916 4.72497 39.1008 4.72497V0.248652Z" fill="black"/>
<path d="M67.0045 57.167C51.8974 72.2741 27.4039 72.2741 12.2968 57.167C-2.81035 42.0598 -2.81035 17.5664 12.2968 2.45923L15.4229 5.58539C2.04233 18.966 2.04233 40.6602 15.4229 54.0408C28.8035 67.4214 50.4978 67.4214 63.8784 54.0408L67.0045 57.167Z" fill="black"/>
</svg>
